<svg version="1.1" id="Layer_1" xmlns="http://www.w3.org/2000/svg" xmlns:xlink="http://www.w3.org/1999/xlink" x="0px" y="0px"
	 width="100%" viewBox="0 0 640 640" enable-background="new 0 0 640 640" xml:space="preserve">
<path fill="#045141" opacity="1.000000" stroke="none" 
	d="
M585.000000,641.000000 
	C390.000031,641.000000 195.500076,641.000000 1.000078,641.000000 
	C1.000052,427.666748 1.000052,214.333481 1.000026,1.000164 
	C214.333237,1.000109 427.666473,1.000109 640.999756,1.000055 
	C640.999878,214.333191 640.999878,427.666382 640.999939,640.999756 
	C622.500000,641.000000 604.000000,641.000000 585.000000,641.000000 
M385.704498,312.329254 
	C385.474243,312.599792 385.243988,312.870331 385.004150,313.010956 
	C385.004150,313.010956 385.134064,313.001434 384.716797,313.348480 
	C384.497314,313.634338 384.277832,313.920166 383.895233,314.599152 
	C383.720856,314.843231 383.486206,314.992676 382.739899,315.343201 
	C382.495087,315.605927 382.250244,315.868622 382.055267,316.067749 
	C382.055267,316.067749 382.118774,316.117706 381.535492,315.598358 
	C381.026123,313.911469 380.138153,312.238129 380.077271,310.535187 
	C379.881622,305.062866 380.119446,299.574860 379.917450,294.102997 
	C379.841644,292.049927 379.017426,290.024536 378.284515,287.462769 
	C378.186188,287.296173 378.087860,287.129608 377.275116,286.665558 
	C369.663605,285.313141 368.082092,286.490723 368.066620,293.867584 
	C368.028595,312.029541 367.991577,330.192169 368.109558,348.353485 
	C368.151886,354.868195 371.325348,356.468597 377.568970,353.077820 
	C377.568970,353.077820 378.034790,352.975922 378.631470,352.538147 
	C379.018066,350.491516 379.641327,348.456909 379.746063,346.395966 
	C380.036438,340.682343 380.110809,334.957764 380.606110,328.928955 
	C380.826904,328.719818 381.040558,328.503662 381.816742,327.950958 
	C383.034485,326.460083 384.252258,324.969208 385.918304,323.864227 
	C385.772583,323.731110 385.626831,323.597992 386.341461,323.344757 
	C387.735382,322.963409 389.129272,322.582092 390.702728,322.351379 
	C390.702728,322.351379 390.768066,322.576416 390.861237,322.983765 
	C390.981232,323.250702 391.174591,323.444427 391.218567,323.666199 
	C391.218567,323.666199 391.452515,323.595551 391.601074,324.059143 
	C391.747009,324.358765 391.962769,324.594452 392.278137,324.781677 
	C392.278137,324.781677 392.280975,324.815125 392.311127,325.498077 
	C393.239014,326.649384 394.166901,327.800690 395.032013,328.965363 
	C395.032013,328.965363 395.065155,328.910400 395.152405,329.548370 
	C395.822723,330.327179 396.493073,331.106018 397.080627,331.915405 
	C397.080627,331.915405 397.137085,331.847595 397.288879,332.413696 
	C397.681610,332.836273 398.074371,333.258820 398.297211,333.704773 
	C398.297211,333.704773 398.455261,333.638214 398.516907,334.275604 
	C399.166626,335.047516 399.816376,335.819427 400.422333,336.642517 
	C400.422333,336.642517 400.378845,336.591064 400.606750,337.082214 
	C400.858429,337.335754 401.110077,337.589294 401.695038,338.153015 
	C401.884827,338.395355 402.021790,338.664581 402.194489,339.582581 
	C402.846924,340.355103 403.499359,341.127594 404.077026,341.923981 
	C404.077026,341.923981 404.123047,341.860382 404.206970,342.503143 
	C404.871521,343.291840 405.536072,344.080566 406.127411,344.889038 
	C406.127411,344.889038 406.166870,344.824280 406.243683,345.464142 
	C406.909790,346.224701 407.575867,346.985229 408.116028,347.958801 
	C408.116028,347.958801 408.230621,347.748566 408.399780,348.219391 
	C408.560608,348.521179 408.786591,348.761841 409.000000,348.996735 
	C409.000000,348.996735 409.073578,348.934814 409.165161,349.565826 
	C409.816467,350.354797 410.467804,351.143768 411.051544,351.929840 
	C411.051544,351.929840 411.061218,351.862885 411.283264,352.309723 
	C411.483307,352.589050 411.746552,352.782227 412.067474,352.925385 
	C412.067474,352.925385 412.100372,352.909149 412.502380,353.281860 
	C413.013336,353.490204 413.524292,353.698578 414.639465,354.207855 
	C416.688232,353.874695 418.737030,353.541565 421.634521,352.919464 
	C421.914978,352.816315 422.195465,352.713165 422.721680,352.483704 
	C422.436920,352.047699 422.152161,351.611664 421.810333,351.172119 
	C421.810333,351.172119 421.824646,351.116760 421.929138,350.421906 
	C421.929138,349.008453 421.929138,347.595001 421.929138,346.009705 
	C420.388062,345.735992 418.979919,345.485870 417.770294,345.116333 
	C417.770294,345.116333 417.889618,345.314911 417.589508,344.838409 
	C417.338348,344.560181 417.087219,344.281982 416.963806,344.046204 
	C416.963806,344.046204 416.921265,344.173920 416.693054,343.587708 
	C416.290192,343.105194 415.887299,342.622650 415.698029,342.247131 
	C415.698029,342.247131 415.590759,342.460602 415.475464,341.843781 
	C414.945374,341.245544 414.415253,340.647308 413.949585,340.049530 
	C413.949585,340.049530 413.933563,340.111938 413.835907,339.459381 
	C413.156830,338.668976 412.477783,337.878601 411.885742,337.096405 
	C411.885742,337.096405 411.877380,337.183441 411.828186,336.475769 
	C410.854309,335.326263 409.880463,334.176758 408.971069,333.027893 
	C408.971069,333.027893 408.956207,333.090607 408.860931,332.441376 
	C408.185638,331.645111 407.510345,330.848846 406.934082,330.048462 
	C406.934082,330.048462 406.938080,330.147461 406.712738,329.564728 
	C406.313293,329.085236 405.913849,328.605743 405.707733,328.244690 
	C405.707733,328.244690 405.589081,328.437836 405.571594,327.678558 
	C404.710266,323.740875 403.122040,320.365936 398.960663,319.032471 
	C398.960663,319.032471 398.969696,319.108032 398.727509,318.547455 
	C398.319489,318.096130 397.911469,317.644806 397.603851,317.238770 
	C397.603851,317.238770 397.558289,317.339081 397.751007,316.540039 
	C398.380951,314.256989 399.010925,311.973907 399.639526,309.637909 
	C399.639526,309.637909 399.692444,309.639343 400.382904,309.563965 
	C401.850616,307.938293 403.318329,306.312592 404.903656,304.861084 
	C404.903656,304.861084 404.729462,304.978577 405.155457,304.565460 
	C405.404388,304.256683 405.653320,303.947906 405.825165,303.783691 
	C405.825165,303.783691 405.680695,303.706390 406.379242,303.616150 
	C408.212982,301.674011 410.046722,299.731873 411.945953,297.897705 
	C411.945953,297.897705 411.837891,297.963104 412.272552,297.671539 
	C412.509796,297.418274 412.747070,297.165009 412.970459,296.987762 
	C412.970459,296.987762 412.894501,296.973846 413.315491,296.685974 
	C413.536682,296.429260 413.757874,296.172577 413.984558,295.982971 
	C413.984558,295.982971 413.917267,295.981201 414.331116,295.671875 
	C414.543762,295.402222 414.756409,295.132599 415.007202,294.955902 
	C415.007202,294.955902 414.914246,294.993958 415.312469,294.639435 
	C415.535004,294.361450 415.757507,294.083466 415.981354,293.971375 
	C415.981354,293.971375 415.815430,293.972626 416.258789,293.653839 
	C416.500641,293.383148 416.742493,293.112457 416.978973,292.982483 
	C416.978973,292.982483 416.838226,292.977020 417.275940,292.670074 
	C417.514648,292.407471 417.753357,292.144867 417.936798,291.966309 
	C417.936798,291.966309 417.852814,291.911011 418.553741,291.856903 
	C420.834106,291.071106 423.543915,289.986267 421.004761,287.253235 
	C417.809509,283.814026 408.749084,286.459106 406.978119,290.979401 
	C406.978119,290.979401 406.994965,290.976135 406.443451,291.217102 
	C405.947815,291.826447 405.452179,292.435760 404.780975,293.460480 
	C404.601074,293.720856 404.356995,293.886841 403.495544,294.205872 
	C402.998962,294.815186 402.502380,295.424500 401.987976,295.988434 
	C401.987976,295.988434 402.034912,296.001770 401.631165,296.287598 
	C401.376678,296.503326 401.166168,296.755737 400.988098,296.987488 
	C400.988098,296.987488 401.045197,297.000122 400.633820,297.282593 
	C400.374268,297.497284 400.160889,297.750824 399.984924,297.984314 
	C399.984924,297.984314 400.043030,297.997375 399.490631,298.233765 
	C398.991943,298.834320 398.493256,299.434875 397.981964,299.982788 
	C397.981964,299.982788 398.034088,299.997253 397.374084,300.133789 
	C396.589264,301.111176 395.804413,302.088531 395.002045,303.003601 
	C395.002045,303.003601 395.066589,302.998810 394.652435,303.302399 
	C394.437378,303.567261 394.222321,303.832123 394.006165,304.006348 
	C394.006165,304.006348 394.096802,304.005280 393.674225,304.308167 
	C393.452637,304.573425 393.231049,304.838654 393.004791,305.006866 
	C393.004791,305.006866 393.101837,305.002289 392.691376,305.319000 
	C392.473694,305.586182 392.256042,305.853363 392.038330,306.037048 
	C392.038330,306.037048 392.121857,306.037109 391.697052,306.343414 
	C391.467346,306.605621 391.237640,306.867798 391.008301,307.008728 
	C391.008301,307.008728 391.129578,307.009186 390.705139,307.326630 
	C390.476868,307.595306 390.248596,307.863983 390.023193,308.022614 
	C390.023193,308.022614 390.133240,308.025574 389.701355,308.321777 
	C389.467896,308.579468 389.234436,308.837189 389.002991,309.002136 
	C389.002991,309.002136 389.095703,309.004242 388.676270,309.315033 
	C388.454803,309.582550 388.233368,309.850098 388.010956,310.010345 
	C388.010956,310.010345 388.118225,310.009491 387.691742,310.320160 
	C387.464600,310.587463 387.237457,310.854767 387.010162,311.009827 
	C387.010162,311.009827 387.122437,311.009766 386.695038,311.323395 
	C386.467377,311.592468 386.239746,311.861572 386.012909,312.010010 
	C386.012909,312.010010 386.133514,312.010986 385.704498,312.329254 
M540.002319,289.009796 
	C540.002319,289.009796 539.989319,289.080536 539.643311,288.448212 
	C536.007568,284.935211 532.334290,285.296082 528.282043,288.827454 
	C522.594543,293.758698 520.787415,300.774506 523.996826,305.464325 
	C527.763428,310.968353 532.570740,312.113892 539.539001,308.778198 
	C540.022400,308.374451 540.505798,307.970703 541.136719,307.297577 
	C541.270996,307.131622 541.442200,307.024902 542.131653,306.674286 
	C542.417847,306.427612 542.704102,306.180908 542.880737,306.010712 
	C542.880737,306.010712 542.804199,305.901215 543.495605,305.623505 
	C547.275146,301.534241 547.026184,295.353394 542.996216,291.988617 
	C542.996216,291.988617 542.997498,292.045319 542.708801,291.636627 
	C542.459717,291.415985 542.210693,291.195312 541.559998,290.762726 
	C541.309204,290.575897 541.131042,290.335327 540.707764,289.645813 
	C540.449036,289.429535 540.190247,289.213257 540.002319,289.009796 
M97.433983,287.469635 
	C97.554527,290.046631 97.675072,292.623657 98.373077,295.691437 
	C101.954521,296.087067 105.530716,296.755310 109.118454,296.824432 
	C117.997765,296.995575 118.093758,296.962189 118.102905,305.717926 
	C118.118195,320.350525 118.179794,334.983612 118.071342,349.615387 
	C118.038979,353.981659 119.644226,356.022034 124.214073,355.962158 
	C128.667450,355.903809 129.912384,353.646301 129.894165,349.660858 
	C129.825729,334.696106 129.859177,319.730682 129.894974,304.765656 
	C129.912933,297.262451 130.315933,297.130524 137.809906,296.778381 
	C142.159775,296.573975 146.470062,295.527222 151.113678,294.237152 
	C150.836075,292.062714 150.558472,289.888306 149.695679,287.227325 
	C147.920166,286.896149 146.147949,286.300903 144.368576,286.278717 
	C135.873306,286.172882 127.374420,286.116425 118.880081,286.250153 
	C111.906067,286.359955 104.936638,286.761566 97.433983,287.469635 
M452.080261,288.657776 
	C451.723907,290.237000 451.063690,291.815033 451.057709,293.395599 
	C450.989197,311.473114 450.967133,329.551453 451.107635,347.628174 
	C451.121552,349.422729 452.289673,351.208344 453.869080,353.012543 
	C467.436829,353.012543 481.004578,353.012543 494.559998,353.012543 
	C494.559998,350.154724 494.559998,348.116089 494.559998,345.587799 
	C485.182312,345.587799 476.218933,345.355499 467.275970,345.682587 
	C462.574768,345.854553 460.929199,344.542297 461.027771,339.602142 
	C461.336304,324.144836 461.145782,308.677612 461.148529,293.214233 
	C461.148834,291.457214 461.148529,289.700195 461.148529,287.347961 
	C457.746246,287.663391 455.151917,287.903900 452.080261,288.657776 
M431.507202,353.664001 
	C437.462921,355.884888 439.785614,354.572266 439.819275,348.455963 
	C439.923553,329.506653 439.851715,310.556366 439.832550,291.606445 
	C439.831696,290.781097 439.819580,289.908813 439.567657,289.138519 
	C438.260498,285.141663 434.868500,286.208557 432.020020,286.225586 
	C429.306122,286.241821 427.891937,287.424286 427.919952,290.541321 
	C428.089996,309.489105 428.034424,328.438934 428.218506,347.386475 
	C428.235901,349.176392 429.390533,350.955292 430.544525,352.932281 
	C430.717834,353.003082 430.891113,353.073883 431.507202,353.664001 
M226.033539,288.922363 
	C225.691971,290.516235 225.059433,292.108978 225.053329,293.704132 
	C224.983444,311.961884 224.970215,330.220245 225.072495,348.477692 
	C225.082077,350.186859 225.981735,351.890991 227.093399,353.976379 
	C229.659744,354.111115 232.226089,354.245880 235.342178,354.409485 
	C235.342178,347.736298 235.308960,341.781433 235.349670,335.827087 
	C235.417679,325.881958 234.593979,327.219147 243.782455,327.157867 
	C256.594299,327.072418 269.411041,327.296295 282.217957,327.023773 
	C294.208160,326.768646 300.816223,319.691223 300.928711,307.646210 
	C301.041962,295.516937 294.636719,288.044220 282.795837,287.778931 
	C265.000519,287.380188 247.190842,287.611816 229.387314,287.624207 
	C228.434448,287.624878 227.481918,288.076599 226.033539,288.922363 
M336.304291,293.630096 
	C343.930450,294.618195 347.939026,299.400787 349.294220,306.474854 
	C352.041351,306.474854 354.309753,306.474854 356.553040,306.474854 
	C357.222168,296.139221 350.487152,288.418457 339.398071,286.458252 
	C326.245575,284.133301 314.072021,289.755249 311.087524,299.532562 
	C308.129242,309.223846 311.768311,316.748260 321.599426,319.992279 
	C328.697174,322.334320 336.131165,323.651062 343.247223,325.945801 
	C349.060120,327.820282 351.236511,331.227753 350.985931,336.197662 
	C350.732391,341.225983 347.674011,344.681854 342.078217,346.263031 
	C329.883118,349.708984 321.335693,345.322449 316.368500,333.615692 
	C315.817047,332.315948 312.690033,331.811188 310.690735,331.613770 
	C310.125946,331.557983 308.641998,333.961426 308.744843,335.134857 
	C309.299622,341.465240 312.363464,346.455200 317.706635,349.979736 
	C326.893097,356.039520 342.914062,356.000580 351.973755,349.806641 
	C357.838928,345.796753 360.474579,340.145538 359.898010,333.069794 
	C359.338531,326.203491 355.499725,321.558258 349.295563,319.180267 
	C344.501648,317.342834 339.405243,316.295288 334.445007,314.890656 
	C331.247345,313.985168 327.967407,313.290253 324.878754,312.100189 
	C321.224518,310.692169 318.717133,308.169006 318.914612,303.821655 
	C319.108459,299.554535 321.099365,296.279297 325.106415,295.028778 
	C328.368042,294.010925 331.936829,293.977417 336.304291,293.630096 
M212.980255,337.646881 
	C216.935806,327.668427 217.345123,317.517029 214.022430,307.339539 
	C209.557907,293.664581 198.447327,285.814240 184.233002,285.986328 
	C170.455032,286.153168 159.123413,294.229980 155.767715,308.125336 
	C154.025558,315.339325 153.753479,323.391327 154.932129,330.724854 
	C157.220398,344.962189 167.407059,354.169373 180.440079,355.825317 
	C194.776917,357.646942 205.706497,351.723785 212.980255,337.646881 
M510.939728,308.511749 
	C510.939728,301.730042 510.939728,294.948334 510.939728,288.288849 
	C502.710815,286.620605 502.270081,286.952271 502.270111,294.331024 
	C502.270203,311.796570 502.273041,329.262146 502.274689,346.727692 
	C502.274872,348.659302 502.274719,350.590942 502.274719,353.008942 
	C515.516418,353.008942 527.976135,352.971619 540.435303,353.038055 
	C543.176697,353.052673 544.734680,352.466370 544.793823,349.210907 
	C544.857483,345.709167 542.910645,345.563385 540.355774,345.576691 
	C532.205383,345.619171 524.049316,345.411011 515.906311,345.656891 
	C511.896942,345.777924 510.795105,344.259430 510.871063,340.445221 
	C511.076416,330.136292 510.940369,319.820618 510.939728,308.511749 
z"/>
<path fill="#9CE43A" opacity="1.000000" stroke="none" 
	d="
M226.529221,288.318359 
	C227.481918,288.076599 228.434448,287.624878 229.387314,287.624207 
	C247.190842,287.611816 265.000519,287.380188 282.795837,287.778931 
	C294.636719,288.044220 301.041962,295.516937 300.928711,307.646210 
	C300.816223,319.691223 294.208160,326.768646 282.217957,327.023773 
	C269.411041,327.296295 256.594299,327.072418 243.782455,327.157867 
	C234.593979,327.219147 235.417679,325.881958 235.349670,335.827087 
	C235.308960,341.781433 235.342178,347.736298 235.342178,354.409485 
	C232.226089,354.245880 229.659744,354.111115 226.864304,353.372620 
	C226.599884,331.285339 226.564560,309.801849 226.529221,288.318359 
M259.499939,319.796356 
	C266.314240,319.790985 273.136322,319.988800 279.940765,319.726959 
	C287.834106,319.423218 292.189453,314.904083 292.209503,307.564606 
	C292.229828,300.124420 287.973175,295.324982 280.190002,295.155640 
	C266.401581,294.855652 252.602142,295.088776 238.807877,295.005676 
	C236.210846,294.990021 235.267807,296.041473 235.303619,298.554413 
	C235.386444,304.370300 235.446548,310.191528 235.281570,316.003937 
	C235.189850,319.235260 236.744965,319.888947 239.553619,319.832489 
	C245.866776,319.705566 252.184265,319.794952 259.499939,319.796356 
z"/>
<path fill="#97E03B" opacity="1.000000" stroke="none" 
	d="
M335.836853,293.568726 
	C331.936829,293.977417 328.368042,294.010925 325.106415,295.028778 
	C321.099365,296.279297 319.108459,299.554535 318.914612,303.821655 
	C318.717133,308.169006 321.224518,310.692169 324.878754,312.100189 
	C327.967407,313.290253 331.247345,313.985168 334.445007,314.890656 
	C339.405243,316.295288 344.501648,317.342834 349.295563,319.180267 
	C355.499725,321.558258 359.338531,326.203491 359.898010,333.069794 
	C360.474579,340.145538 357.838928,345.796753 351.973755,349.806641 
	C342.914062,356.000580 326.893097,356.039520 317.706635,349.979736 
	C312.363464,346.455200 309.299622,341.465240 308.744843,335.134857 
	C308.641998,333.961426 310.125946,331.557983 310.690735,331.613770 
	C312.690033,331.811188 315.817047,332.315948 316.368500,333.615692 
	C321.335693,345.322449 329.883118,349.708984 342.078217,346.263031 
	C347.674011,344.681854 350.732391,341.225983 350.985931,336.197662 
	C351.236511,331.227753 349.060120,327.820282 343.247223,325.945801 
	C336.131165,323.651062 328.697174,322.334320 321.599426,319.992279 
	C311.768311,316.748260 308.129242,309.223846 311.087524,299.532562 
	C314.072021,289.755249 326.245575,284.133301 339.398071,286.458252 
	C350.487152,288.418457 357.222168,296.139221 356.553040,306.474854 
	C354.309753,306.474854 352.041351,306.474854 349.294220,306.474854 
	C347.939026,299.400787 343.930450,294.618195 335.836853,293.568726 
z"/>
<path fill="#98E13A" opacity="1.000000" stroke="none" 
	d="
M212.840454,337.994446 
	C205.706497,351.723785 194.776917,357.646942 180.440079,355.825317 
	C167.407059,354.169373 157.220398,344.962189 154.932129,330.724854 
	C153.753479,323.391327 154.025558,315.339325 155.767715,308.125336 
	C159.123413,294.229980 170.455032,286.153168 184.233002,285.986328 
	C198.447327,285.814240 209.557907,293.664581 214.022430,307.339539 
	C217.345123,317.517029 216.935806,327.668427 212.840454,337.994446 
M171.597137,344.017426 
	C183.115723,351.845764 196.811081,349.442932 202.995911,337.961456 
	C208.995300,326.824219 209.045578,315.129089 202.960220,304.039429 
	C195.401016,290.263855 175.944244,289.839722 167.237213,302.904572 
	C159.398483,314.666565 161.154099,333.434723 171.597137,344.017426 
z"/>
<path fill="#9AE437" opacity="1.000000" stroke="none" 
	d="
M422.475983,352.609985 
	C422.195465,352.713165 421.914978,352.816315 420.870514,352.985748 
	C419.402405,353.077240 418.698334,353.102448 417.578094,353.046631 
	C415.474762,352.946808 413.787567,352.927979 412.100372,352.909149 
	C412.100372,352.909149 412.067474,352.925385 411.962311,352.684418 
	C411.657990,352.159271 411.392670,351.965759 411.061218,351.862885 
	C411.061218,351.862885 411.051544,351.929840 411.024231,351.624207 
	C410.355804,350.523987 409.714691,349.729401 409.073578,348.934814 
	C409.073578,348.934814 409.000000,348.996735 408.982300,348.718018 
	C408.719940,348.209076 408.475281,347.978821 408.230621,347.748566 
	C408.230621,347.748566 408.116028,347.958801 408.108154,347.555176 
	C407.455811,346.375793 406.811340,345.600037 406.166870,344.824280 
	C406.166870,344.824280 406.127411,344.889038 406.096008,344.571350 
	C405.417450,343.455902 404.770264,342.658142 404.123047,341.860382 
	C404.123047,341.860382 404.077026,341.923981 404.047821,341.609100 
	C403.381042,340.516357 402.743500,339.738495 402.105927,338.960632 
	C402.021790,338.664581 401.884827,338.395355 401.452515,337.729034 
	C400.932953,337.067047 400.655914,336.829041 400.378845,336.591064 
	C400.378845,336.591064 400.422333,336.642517 400.361755,336.321899 
	C399.685883,335.213562 399.070587,334.425903 398.455261,333.638214 
	C398.455261,333.638214 398.297211,333.704773 398.297760,333.410461 
	C397.911224,332.693329 397.524170,332.270447 397.137085,331.847595 
	C397.137085,331.847595 397.080627,331.915405 397.059296,331.593323 
	C396.380371,330.484283 395.722748,329.697327 395.065155,328.910400 
	C395.065155,328.910400 395.032013,328.965363 394.997162,328.642975 
	C394.068512,327.152100 393.174744,325.983612 392.280975,324.815125 
	C392.280975,324.815125 392.278137,324.781677 392.210449,324.532990 
	C392.003906,323.963348 391.773834,323.733765 391.452515,323.595551 
	C391.452515,323.595551 391.218567,323.666199 391.283569,323.411896 
	C391.226074,322.892944 391.032593,322.699219 390.768066,322.576416 
	C390.768066,322.576416 390.702728,322.351379 390.531525,322.026550 
	C389.682068,321.208649 389.003815,320.715576 388.092957,320.343048 
	C387.571930,320.663422 387.283447,320.863312 386.994843,321.028992 
	C386.994720,320.994812 387.062927,320.999237 386.873810,321.212646 
	C386.467407,321.738922 386.250153,322.051849 385.941406,322.549438 
	C385.659088,322.943390 385.536133,323.186981 385.481110,323.464844 
	C385.626831,323.597992 385.772583,323.731110 385.478333,323.744507 
	C384.790009,323.802795 384.519165,323.934570 384.003815,324.177917 
	C383.516327,324.582489 383.250854,324.829224 382.989960,325.031128 
	C382.994537,324.986328 383.084167,324.995331 382.886047,325.159119 
	C382.456543,325.575378 382.225220,325.827911 382.002228,326.039551 
	C382.010559,325.998688 382.092316,326.015472 381.822998,326.149567 
	C381.035767,326.874664 380.517853,327.465668 379.995422,328.023895 
	C379.990936,327.991119 380.057098,327.991211 379.860168,328.145844 
	C379.437592,328.545868 379.211945,328.791260 378.983337,329.006104 
	C378.980347,328.975555 379.040588,328.987488 378.741333,329.224274 
	C377.966766,334.930481 377.304871,340.392517 377.087036,345.872162 
	C376.958557,349.103027 376.515961,351.768463 372.698608,352.860687 
	C372.046509,352.882324 371.672089,352.844025 371.251038,352.348480 
	C371.154938,332.823456 371.103943,313.755676 371.062347,294.687897 
	C371.060913,294.027008 370.913727,293.187988 371.247498,292.739380 
	C372.134552,291.547333 373.247894,290.523651 374.271210,289.432983 
	C375.159882,290.626862 376.758423,291.786835 376.817261,293.020294 
	C377.109436,299.142609 376.889984,305.287567 377.077301,311.417603 
	C377.151062,313.831146 377.813660,316.226715 378.358002,318.687500 
	C378.507874,318.744568 378.803162,318.869781 378.723572,318.908569 
	C378.643982,318.947357 378.793427,319.106781 378.793427,319.106781 
	C378.793427,319.106781 378.901794,318.923950 379.224060,318.920746 
	C380.403809,317.984253 381.261292,317.050995 382.118774,316.117706 
	C382.118774,316.117706 382.055267,316.067749 382.302124,316.012817 
	C382.763062,315.654388 382.977203,315.350891 383.191315,315.047424 
	C383.486206,314.992676 383.720856,314.843231 384.234589,314.282166 
	C384.760651,313.643921 384.947357,313.322662 385.134064,313.001434 
	C385.134064,313.001434 385.004150,313.010956 385.276978,312.980530 
	C385.744354,312.637054 385.938934,312.324036 386.133514,312.010986 
	C386.133514,312.010986 386.012909,312.010010 386.275818,311.972412 
	C386.733307,311.626495 386.927887,311.318146 387.122437,311.009766 
	C387.122437,311.009766 387.010162,311.009827 387.273163,310.970398 
	C387.730164,310.623779 387.924194,310.316620 388.118225,310.009491 
	C388.118225,310.009491 388.010956,310.010345 388.271912,309.967712 
	C388.720490,309.618134 388.908112,309.311188 389.095703,309.004242 
	C389.095703,309.004242 389.002991,309.002136 389.265137,308.961975 
	C389.729279,308.623077 389.931244,308.324341 390.133240,308.025574 
	C390.133240,308.025574 390.023193,308.022614 390.282471,307.975494 
	C390.737701,307.621979 390.933624,307.315582 391.129578,307.009186 
	C391.129578,307.009186 391.008301,307.008728 391.268738,306.974976 
	C391.726746,306.639862 391.924316,306.338501 392.121857,306.037109 
	C392.121857,306.037109 392.038330,306.037048 392.292664,305.976929 
	C392.731964,305.611938 392.916901,305.307098 393.101807,305.002289 
	C393.101837,305.002289 393.004791,305.006866 393.265259,304.959625 
	C393.716095,304.610016 393.906464,304.307648 394.096802,304.005280 
	C394.096802,304.005280 394.006165,304.006348 394.262085,303.957336 
	C394.700897,303.605164 394.883759,303.302002 395.066589,302.998810 
	C395.066589,302.998810 395.002045,303.003601 395.293976,302.899597 
	C396.401978,301.862823 397.218018,300.930023 398.034088,299.997253 
	C398.034088,299.997253 397.981964,299.982788 398.266846,299.899170 
	C399.048798,299.209473 399.545929,298.603424 400.043030,297.997375 
	C400.043030,297.997375 399.984924,297.984314 400.233185,297.919006 
	C400.669373,297.569183 400.857269,297.284668 401.045197,297.000122 
	C401.045197,297.000122 400.988098,296.987488 401.236847,296.922363 
	C401.668701,296.572052 401.851807,296.286926 402.034912,296.001770 
	C402.034912,296.001770 401.987976,295.988434 402.273376,295.894653 
	C403.055420,295.186707 403.552063,294.572571 404.048706,293.958435 
	C404.356995,293.886841 404.601074,293.720856 405.144073,293.131775 
	C406.003082,292.194092 406.499023,291.585114 406.994965,290.976135 
	C406.994965,290.976135 406.978119,290.979401 407.307373,290.819031 
	C411.203796,286.399567 415.619904,287.446503 420.420929,288.263611 
	C419.358582,289.772461 418.605682,290.841736 417.852814,291.911011 
	C417.852814,291.911011 417.936798,291.966309 417.686890,291.999786 
	C417.237396,292.347839 417.037811,292.662445 416.838226,292.977020 
	C416.838226,292.977020 416.978973,292.982483 416.704712,293.002075 
	C416.225433,293.338684 416.020447,293.655670 415.815430,293.972626 
	C415.815430,293.972626 415.981354,293.971375 415.703522,293.984680 
	C415.255219,294.329987 415.084717,294.661987 414.914246,294.993958 
	C414.914246,294.993958 415.007202,294.955902 414.712219,294.983887 
	C414.250580,295.334961 414.083923,295.658081 413.917267,295.981201 
	C413.917267,295.981201 413.984558,295.982971 413.703186,296.002991 
	C413.246063,296.339966 413.070282,296.656921 412.894501,296.973846 
	C412.894501,296.973846 412.970459,296.987762 412.693665,297.001221 
	C412.223877,297.330841 412.030884,297.646973 411.837891,297.963104 
	C411.837891,297.963104 411.945953,297.897705 411.598206,297.963654 
	C409.393860,299.921875 407.537262,301.814117 405.680664,303.706360 
	C405.680695,303.706390 405.825165,303.783691 405.568939,303.836823 
	C405.118286,304.252838 404.923889,304.615723 404.729492,304.978577 
	C404.729462,304.978577 404.903656,304.861084 404.541321,304.908630 
	C402.683502,306.517242 401.187958,308.078308 399.692444,309.639343 
	C399.692444,309.639343 399.639526,309.637909 399.357483,309.808472 
	C396.914154,312.091095 393.220459,313.887299 397.558289,317.339081 
	C397.558289,317.339081 397.603851,317.238770 397.650726,317.516174 
	C398.121643,318.231689 398.545685,318.669861 398.969696,319.108032 
	C398.969696,319.108032 398.960663,319.032471 399.016296,319.370667 
	C401.244293,322.618500 403.416687,325.528168 405.589081,328.437836 
	C405.589081,328.437836 405.707733,328.244690 405.669495,328.511444 
	C406.066864,329.234619 406.502472,329.691040 406.938080,330.147461 
	C406.938080,330.147461 406.934082,330.048462 406.945923,330.366272 
	C407.623901,331.486267 408.290070,332.288422 408.956207,333.090607 
	C408.956207,333.090607 408.971069,333.027893 409.013306,333.346252 
	C409.996124,334.837524 410.936737,336.010498 411.877380,337.183441 
	C411.877380,337.183441 411.885742,337.096405 411.922821,337.400696 
	C412.617798,338.507294 413.275665,339.309601 413.933563,340.111938 
	C413.933563,340.111938 413.949585,340.049530 413.992157,340.342285 
	C414.553406,341.243561 415.072083,341.852081 415.590759,342.460602 
	C415.590759,342.460602 415.698029,342.247131 415.664795,342.514771 
	C416.061493,343.246277 416.491364,343.710083 416.921265,344.173920 
	C416.921265,344.173920 416.963806,344.046204 416.965393,344.322327 
	C417.274536,344.837280 417.582062,345.076111 417.889618,345.314911 
	C417.889618,345.314911 417.770294,345.116333 417.782806,345.497253 
	C419.138428,347.624359 420.481537,349.370544 421.824646,351.116760 
	C421.824646,351.116760 421.810333,351.172119 421.874664,351.437164 
	C422.117981,352.004822 422.296967,352.307404 422.475983,352.609985 
z"/>
<path fill="#97E03B" opacity="1.000000" stroke="none" 
	d="
M510.939728,309.009674 
	C510.940369,319.820618 511.076416,330.136292 510.871063,340.445221 
	C510.795105,344.259430 511.896942,345.777924 515.906311,345.656891 
	C524.049316,345.411011 532.205383,345.619171 540.355774,345.576691 
	C542.910645,345.563385 544.857483,345.709167 544.793823,349.210907 
	C544.734680,352.466370 543.176697,353.052673 540.435303,353.038055 
	C527.976135,352.971619 515.516418,353.008942 502.274719,353.008942 
	C502.274719,350.590942 502.274872,348.659302 502.274689,346.727692 
	C502.273041,329.262146 502.270203,311.796570 502.270111,294.331024 
	C502.270081,286.952271 502.710815,286.620605 510.939728,288.288849 
	C510.939728,294.948334 510.939728,301.730042 510.939728,309.009674 
z"/>
<path fill="#9DE53C" opacity="1.000000" stroke="none" 
	d="
M431.064423,353.144714 
	C430.891113,353.073883 430.717834,353.003082 430.297485,352.393860 
	C430.050476,330.637878 430.050476,309.420319 430.050476,288.334900 
	C438.160675,287.097412 438.224487,287.136505 438.228699,294.300232 
	C438.238953,311.759521 438.241821,329.218811 438.219452,346.678070 
	C438.216980,348.613922 438.032043,350.549500 437.924133,352.631592 
	C435.317413,352.826569 433.190918,352.985657 431.064423,353.144714 
z"/>
<path fill="#1C6727" opacity="1.000000" stroke="none" 
	d="
M150.798172,294.859497 
	C146.470062,295.527222 142.159775,296.573975 137.809906,296.778381 
	C130.315933,297.130524 129.912933,297.262451 129.894974,304.765656 
	C129.859177,319.730682 129.825729,334.696106 129.894165,349.660858 
	C129.912384,353.646301 128.667450,355.903809 124.214073,355.962158 
	C119.644226,356.022034 118.038979,353.981659 118.071342,349.615387 
	C118.179794,334.983612 118.118195,320.350525 118.102905,305.717926 
	C118.093758,296.962189 117.997765,296.995575 109.118454,296.824432 
	C105.530716,296.755310 101.954521,296.087067 98.175980,295.355103 
	C97.978874,295.018738 98.160294,294.838074 98.617172,294.875366 
	C104.232269,294.923096 109.406609,295.188690 114.543716,294.864532 
	C118.782410,294.597107 119.913261,296.196442 119.863708,300.265289 
	C119.669197,316.237366 119.773293,332.213257 119.799782,348.187653 
	C119.802940,350.095337 120.010269,352.002655 120.114342,353.764038 
	C128.084824,355.088470 128.089645,355.088470 128.092133,347.676361 
	C128.097488,331.701904 128.190750,315.726532 128.028931,299.753723 
	C127.991913,296.100311 129.018051,294.716644 132.814896,294.877350 
	C138.457321,295.116272 144.121948,294.831085 150.031982,294.796082 
	C150.457291,294.835327 150.627731,294.847412 150.798172,294.859497 
z"/>
<path fill="#92DE50" opacity="1.000000" stroke="none" 
	d="
M452.557587,288.144409 
	C455.151917,287.903900 457.746246,287.663391 461.148529,287.347961 
	C461.148529,289.700195 461.148834,291.457214 461.148529,293.214233 
	C461.145782,308.677612 461.336304,324.144836 461.027771,339.602142 
	C460.929199,344.542297 462.574768,345.854553 467.275970,345.682587 
	C476.218933,345.355499 485.182312,345.587799 494.559998,345.587799 
	C494.559998,348.116089 494.559998,350.154724 494.559998,353.012543 
	C481.004578,353.012543 467.436829,353.012543 453.314148,352.543793 
	C452.692047,330.764832 452.624817,309.454620 452.557587,288.144409 
M463.242950,346.669464 
	C462.155945,344.299500 460.215271,341.959625 460.130432,339.554291 
	C459.772552,329.408691 459.973236,319.243530 459.958923,309.085541 
	C459.951385,303.757141 460.119080,298.415466 459.761200,293.109863 
	C459.673340,291.807556 457.836365,290.623230 456.803528,289.384674 
	C455.884674,290.570282 454.874695,291.699829 454.092804,292.969788 
	C453.789429,293.462555 453.981995,294.272705 453.981781,294.938293 
	C453.976166,311.757263 454.064789,328.577026 453.914642,345.394684 
	C453.872986,350.062500 455.622894,352.082062 460.349548,351.998077 
	C469.339020,351.838348 478.336975,352.078339 487.322083,351.823578 
	C489.060089,351.774292 490.755463,350.222473 492.470490,349.363739 
	C490.670013,348.592773 488.893738,347.228790 487.064880,347.154236 
	C479.416962,346.842407 471.753265,346.917572 463.242950,346.669464 
z"/>
<path fill="#1C6727" opacity="1.000000" stroke="none" 
	d="
M431.285828,353.404358 
	C433.190918,352.985657 435.317413,352.826569 437.924133,352.631592 
	C438.032043,350.549500 438.216980,348.613922 438.219452,346.678070 
	C438.241821,329.218811 438.238953,311.759521 438.228699,294.300232 
	C438.224487,287.136505 438.160675,287.097412 430.050476,288.334900 
	C430.050476,309.420319 430.050476,330.637878 430.033813,352.297363 
	C429.390533,350.955292 428.235901,349.176392 428.218506,347.386475 
	C428.034424,328.438934 428.089996,309.489105 427.919952,290.541321 
	C427.891937,287.424286 429.306122,286.241821 432.020020,286.225586 
	C434.868500,286.208557 438.260498,285.141663 439.567657,289.138519 
	C439.819580,289.908813 439.831696,290.781097 439.832550,291.606445 
	C439.851715,310.556366 439.923553,329.506653 439.819275,348.455963 
	C439.785614,354.572266 437.462921,355.884888 431.285828,353.404358 
z"/>
<path fill="#125D27" opacity="1.000000" stroke="none" 
	d="
M371.297668,352.805725 
	C371.672089,352.844025 372.046509,352.882324 373.109375,352.935974 
	C374.905487,353.045593 376.013184,353.139893 377.120880,353.234192 
	C371.325348,356.468597 368.151886,354.868195 368.109558,348.353485 
	C367.991577,330.192169 368.028595,312.029541 368.066620,293.867584 
	C368.082092,286.490723 369.663605,285.313141 377.246246,286.821350 
	C375.455902,287.159607 373.694458,287.342041 371.519531,287.671112 
	C370.729065,288.999268 370.027588,290.179688 370.023529,291.362488 
	C369.956909,310.738007 369.956757,330.113922 370.036255,349.489319 
	C370.040771,350.596497 370.858429,351.700348 371.297668,352.805725 
z"/>
<path fill="#73C163" opacity="1.000000" stroke="none" 
	d="
M541.025452,290.041016 
	C541.131042,290.335327 541.309204,290.575897 541.877686,291.097778 
	C542.462769,291.636993 542.730164,291.841156 542.997498,292.045319 
	C542.997498,292.045319 542.996216,291.988617 543.062988,292.367249 
	C545.605835,297.194977 544.846619,301.563965 542.804199,305.901215 
	C542.804199,305.901215 542.880737,306.010712 542.642822,306.035553 
	C542.153381,306.366089 541.901855,306.671783 541.650330,306.977448 
	C541.442200,307.024902 541.270996,307.131622 540.777222,307.569458 
	C539.930847,308.237274 539.443970,308.633240 538.957092,309.029175 
	C532.570740,312.113892 527.763428,310.968353 523.996826,305.464325 
	C520.787415,300.774506 522.594543,293.758698 528.879822,288.525787 
	C532.981506,288.509583 536.485413,288.795074 539.989319,289.080536 
	C539.989319,289.080536 540.002319,289.009796 540.083374,289.237396 
	C540.451477,289.656982 540.738464,289.848999 541.025452,290.041016 
M528.902466,306.972137 
	C533.262207,309.155487 537.350220,308.851929 540.579895,305.048492 
	C543.425720,301.697144 544.131653,297.373352 541.356018,294.071533 
	C539.391418,291.734436 535.570984,289.455414 532.814209,289.708893 
	C530.060547,289.962067 526.716309,292.900879 525.217590,295.557434 
	C522.968445,299.544128 524.648010,303.571808 528.902466,306.972137 
z"/>
<path fill="#024B25" opacity="1.000000" stroke="none" 
	d="
M452.318909,288.401093 
	C452.624817,309.454620 452.692047,330.764832 452.840668,352.536560 
	C452.289673,351.208344 451.121552,349.422729 451.107635,347.628174 
	C450.967133,329.551453 450.989197,311.473114 451.057709,293.395599 
	C451.063690,291.815033 451.723907,290.237000 452.318909,288.401093 
z"/>
<path fill="#27722B" opacity="1.000000" stroke="none" 
	d="
M97.965179,287.033844 
	C104.936638,286.761566 111.906067,286.359955 118.880081,286.250153 
	C127.374420,286.116425 135.873306,286.172882 144.368576,286.278717 
	C146.147949,286.300903 147.920166,286.896149 149.885468,287.569702 
	C150.075241,287.912109 149.871399,288.108612 149.418625,288.018250 
	C132.002853,287.954529 115.039848,287.981171 98.044540,287.764832 
	C98.012245,287.521820 97.965179,287.033844 97.965179,287.033844 
z"/>
<path fill="#024B25" opacity="1.000000" stroke="none" 
	d="
M226.281372,288.620361 
	C226.564560,309.801849 226.599884,331.285339 226.551666,353.183167 
	C225.981735,351.890991 225.082077,350.186859 225.072495,348.477692 
	C224.970215,330.220245 224.983444,311.961884 225.053329,293.704132 
	C225.059433,292.108978 225.691971,290.516235 226.281372,288.620361 
z"/>
<path fill="#125D27" opacity="1.000000" stroke="none" 
	d="
M381.827148,315.858032 
	C381.261292,317.050995 380.403809,317.984253 379.212250,318.883179 
	C378.878143,318.848846 378.803162,318.869781 378.803162,318.869781 
	C378.803162,318.869781 378.507874,318.744568 378.436279,318.266998 
	C378.261169,307.859009 378.157593,297.928558 378.175110,288.036316 
	C378.296204,288.074524 378.534393,287.986511 378.534424,287.986511 
	C379.017426,290.024536 379.841644,292.049927 379.917450,294.102997 
	C380.119446,299.574860 379.881622,305.062866 380.077271,310.535187 
	C380.138153,312.238129 381.026123,313.911469 381.827148,315.858032 
z"/>
<path fill="#27722B" opacity="1.000000" stroke="none" 
	d="
M380.270569,329.237518 
	C380.110809,334.957764 380.036438,340.682343 379.746063,346.395966 
	C379.641327,348.456909 379.018066,350.491516 378.405823,352.295898 
	C378.466980,344.364960 378.753784,336.676208 379.040588,328.987488 
	C379.040588,328.987488 378.980347,328.975555 379.203430,328.969238 
	C379.426483,328.962921 379.860107,328.860321 379.962708,328.954620 
	C380.065338,329.048920 380.270569,329.237518 380.270569,329.237518 
z"/>
<path fill="#125D27" opacity="1.000000" stroke="none" 
	d="
M418.203278,291.883972 
	C418.605682,290.841736 419.358582,289.772461 420.420929,288.263611 
	C415.619904,287.446503 411.203796,286.399567 407.305786,290.827515 
	C408.749084,286.459106 417.809509,283.814026 421.004761,287.253235 
	C423.543915,289.986267 420.834106,291.071106 418.203278,291.883972 
z"/>
<path fill="#92DE50" opacity="1.000000" stroke="none" 
	d="
M378.741333,329.224274 
	C378.753784,336.676208 378.466980,344.364960 378.107483,352.514801 
	C378.034790,352.975922 377.568970,353.077820 377.344910,353.156006 
	C376.013184,353.139893 374.905487,353.045593 373.387024,352.876007 
	C376.515961,351.768463 376.958557,349.103027 377.087036,345.872162 
	C377.304871,340.392517 377.966766,334.930481 378.741333,329.224274 
z"/>
<path fill="#125D27" opacity="1.000000" stroke="none" 
	d="
M543.149902,305.762360 
	C544.846619,301.563965 545.605835,297.194977 543.038696,292.381897 
	C547.026184,295.353394 547.275146,301.534241 543.149902,305.762360 
z"/>
<path fill="#125D27" opacity="1.000000" stroke="none" 
	d="
M405.580322,328.058197 
	C403.416687,325.528168 401.244293,322.618500 398.978516,319.375183 
	C403.122040,320.365936 404.710266,323.740875 405.580322,328.058197 
z"/>
<path fill="#125D27" opacity="1.000000" stroke="none" 
	d="
M539.816284,288.764374 
	C536.485413,288.795074 532.981506,288.509583 529.056274,288.282715 
	C532.334290,285.296082 536.007568,284.935211 539.816284,288.764374 
z"/>
<path fill="#125D27" opacity="1.000000" stroke="none" 
	d="
M397.654663,316.939575 
	C393.220459,313.887299 396.914154,312.091095 399.358185,309.834961 
	C399.010925,311.973907 398.380951,314.256989 397.654663,316.939575 
z"/>
<path fill="#125D27" opacity="1.000000" stroke="none" 
	d="
M406.029968,303.661255 
	C407.537262,301.814117 409.393860,299.921875 411.565430,297.909668 
	C410.046722,299.731873 408.212982,301.674011 406.029968,303.661255 
z"/>
<path fill="#1C6727" opacity="1.000000" stroke="none" 
	d="
M97.699585,287.251740 
	C97.965179,287.033844 98.012245,287.521820 98.023575,288.195709 
	C98.076691,290.859100 98.118492,292.848572 98.160294,294.838074 
	C98.160294,294.838074 97.978874,295.018738 97.887238,295.109680 
	C97.675072,292.623657 97.554527,290.046631 97.699585,287.251740 
z"/>
<path fill="#125D27" opacity="1.000000" stroke="none" 
	d="
M421.876892,350.769348 
	C420.481537,349.370544 419.138428,347.624359 417.683533,345.556946 
	C418.979919,345.485870 420.388062,345.735992 421.929138,346.009705 
	C421.929138,347.595001 421.929138,349.008453 421.876892,350.769348 
z"/>
<path fill="#27722B" opacity="1.000000" stroke="none" 
	d="
M150.955933,294.548340 
	C150.627731,294.847412 150.457291,294.835327 150.052353,294.384308 
	C149.835709,291.999786 149.853561,290.054199 149.871399,288.108612 
	C149.871399,288.108612 150.075241,287.912109 150.178055,287.812988 
	C150.558472,289.888306 150.836075,292.062714 150.955933,294.548340 
z"/>
<path fill="#125D27" opacity="1.000000" stroke="none" 
	d="
M400.037659,309.601654 
	C401.187958,308.078308 402.683502,306.517242 404.482544,304.821533 
	C403.318329,306.312592 401.850616,307.938293 400.037659,309.601654 
z"/>
<path fill="#27722B" opacity="1.000000" stroke="none" 
	d="
M385.911285,323.404785 
	C385.536133,323.186981 385.659088,322.943390 386.196259,322.388672 
	C386.716034,321.695221 386.889465,321.347229 387.062927,320.999237 
	C387.062927,320.999237 386.994720,320.994812 387.269897,320.988159 
	C387.805237,320.728516 388.065399,320.475525 388.325531,320.222534 
	C389.003815,320.715576 389.682068,321.208649 390.441772,321.951233 
	C389.129272,322.582092 387.735382,322.963409 385.911285,323.404785 
z"/>
<path fill="#27722B" opacity="1.000000" stroke="none" 
	d="
M384.225830,324.020081 
	C384.519165,323.934570 384.790009,323.802795 385.254150,323.551544 
	C384.252258,324.969208 383.034485,326.460083 381.441223,328.013031 
	C381.065704,328.075104 380.884338,327.869751 381.026001,327.630219 
	C381.475861,326.932281 381.784088,326.473877 382.092316,326.015472 
	C382.092316,326.015472 382.010559,325.998688 382.256348,325.941956 
	C382.696136,325.588623 382.890137,325.291962 383.084167,324.995331 
	C383.084167,324.995331 382.994537,324.986328 383.254944,324.933960 
	C383.752167,324.594391 383.989014,324.307251 384.225830,324.020081 
z"/>
<path fill="#27722B" opacity="1.000000" stroke="none" 
	d="
M392.296051,325.156616 
	C393.174744,325.983612 394.068512,327.152100 395.028564,328.636292 
	C394.166901,327.800690 393.239014,326.649384 392.296051,325.156616 
z"/>
<path fill="#125D27" opacity="1.000000" stroke="none" 
	d="
M411.852783,336.829590 
	C410.936737,336.010498 409.996124,334.837524 408.981079,333.345917 
	C409.880463,334.176758 410.854309,335.326263 411.852783,336.829590 
z"/>
<path fill="#125D27" opacity="1.000000" stroke="none" 
	d="
M417.994232,353.127625 
	C418.698334,353.102448 419.402405,353.077240 420.446167,353.130219 
	C418.737030,353.541565 416.688232,353.874695 414.676147,354.036560 
	C415.806641,353.619385 416.900421,353.373505 417.994232,353.127625 
z"/>
<path fill="#3D8533" opacity="1.000000" stroke="none" 
	d="
M371.932983,287.524475 
	C373.694458,287.342041 375.455902,287.159607 377.603455,286.970093 
	C378.087860,287.129608 378.186188,287.296173 378.409454,287.724640 
	C378.534393,287.986511 378.296204,288.074524 377.736847,287.994202 
	C375.429321,287.784058 373.681152,287.654266 371.932983,287.524475 
z"/>
<path fill="#27722B" opacity="1.000000" stroke="none" 
	d="
M417.578094,353.046631 
	C416.900421,353.373505 415.806641,353.619385 414.374023,353.886108 
	C413.524292,353.698578 413.013336,353.490204 412.301392,353.095520 
	C413.787567,352.927979 415.474762,352.946808 417.578094,353.046631 
z"/>
<path fill="#125D27" opacity="1.000000" stroke="none" 
	d="
M397.704102,300.065521 
	C397.218018,300.930023 396.401978,301.862823 395.302734,302.930756 
	C395.804413,302.088531 396.589264,301.111176 397.704102,300.065521 
z"/>
<path fill="#27722B" opacity="1.000000" stroke="none" 
	d="
M409.119385,349.250305 
	C409.714691,349.729401 410.355804,350.523987 411.058044,351.625671 
	C410.467804,351.143768 409.816467,350.354797 409.119385,349.250305 
z"/>
<path fill="#27722B" opacity="1.000000" stroke="none" 
	d="
M406.205261,345.144226 
	C406.811340,345.600037 407.455811,346.375793 408.171143,347.448669 
	C407.575867,346.985229 406.909790,346.224701 406.205261,345.144226 
z"/>
<path fill="#27722B" opacity="1.000000" stroke="none" 
	d="
M404.165009,342.181763 
	C404.770264,342.658142 405.417450,343.455902 406.132629,344.561462 
	C405.536072,344.080566 404.871521,343.291840 404.165009,342.181763 
z"/>
<path fill="#27722B" opacity="1.000000" stroke="none" 
	d="
M402.150208,339.271606 
	C402.743500,339.738495 403.381042,340.516357 404.085205,341.597168 
	C403.499359,341.127594 402.846924,340.355103 402.150208,339.271606 
z"/>
<path fill="#125D27" opacity="1.000000" stroke="none" 
	d="
M413.884735,339.785645 
	C413.275665,339.309601 412.617798,338.507294 411.879303,337.396576 
	C412.477783,337.878601 413.156830,338.668976 413.884735,339.785645 
z"/>
<path fill="#27722B" opacity="1.000000" stroke="none" 
	d="
M398.486084,333.956909 
	C399.070587,334.425903 399.685883,335.213562 400.383667,336.296295 
	C399.816376,335.819427 399.166626,335.047516 398.486084,333.956909 
z"/>
<path fill="#125D27" opacity="1.000000" stroke="none" 
	d="
M408.908569,332.765991 
	C408.290070,332.288422 407.623901,331.486267 406.896423,330.368347 
	C407.510345,330.848846 408.185638,331.645111 408.908569,332.765991 
z"/>
<path fill="#27722B" opacity="1.000000" stroke="none" 
	d="
M395.108765,329.229370 
	C395.722748,329.697327 396.380371,330.484283 397.100677,331.578003 
	C396.493073,331.106018 395.822723,330.327179 395.108765,329.229370 
z"/>
<path fill="#125D27" opacity="1.000000" stroke="none" 
	d="
M422.598816,352.546844 
	C422.296967,352.307404 422.117981,352.004822 421.903198,351.438904 
	C422.152161,351.611664 422.436920,352.047699 422.598816,352.546844 
z"/>
<path fill="#125D27" opacity="1.000000" stroke="none" 
	d="
M415.533112,342.152191 
	C415.072083,341.852081 414.553406,341.243561 413.959961,340.342041 
	C414.415253,340.647308 414.945374,341.245544 415.533112,342.152191 
z"/>
<path fill="#125D27" opacity="1.000000" stroke="none" 
	d="
M403.772125,294.082153 
	C403.552063,294.572571 403.055420,295.186707 402.282288,295.917358 
	C402.502380,295.424500 402.998962,294.815186 403.772125,294.082153 
z"/>
<path fill="#125D27" opacity="1.000000" stroke="none" 
	d="
M406.719208,291.096619 
	C406.499023,291.585114 406.003082,292.194092 405.231842,292.924072 
	C405.452179,292.435760 405.947815,291.826447 406.719208,291.096619 
z"/>
<path fill="#125D27" opacity="1.000000" stroke="none" 
	d="
M399.766846,298.115601 
	C399.545929,298.603424 399.048798,299.209473 398.273132,299.925476 
	C398.493256,299.434875 398.991943,298.834320 399.766846,298.115601 
z"/>
<path fill="#125D27" opacity="1.000000" stroke="none" 
	d="
M398.848602,318.827759 
	C398.545685,318.669861 398.121643,318.231689 397.600525,317.493530 
	C397.911469,317.644806 398.319489,318.096130 398.848602,318.827759 
z"/>
<path fill="#125D27" opacity="1.000000" stroke="none" 
	d="
M406.825409,329.856079 
	C406.502472,329.691040 406.066864,329.234619 405.572845,328.452209 
	C405.913849,328.605743 406.313293,329.085236 406.825409,329.856079 
z"/>
<path fill="#27722B" opacity="1.000000" stroke="none" 
	d="
M397.212982,332.130646 
	C397.524170,332.270447 397.911224,332.693329 398.382690,333.398804 
	C398.074371,333.258820 397.681610,332.836273 397.212982,332.130646 
z"/>
<path fill="#125D27" opacity="1.000000" stroke="none" 
	d="
M539.248047,308.903687 
	C539.443970,308.633240 539.930847,308.237274 540.703491,307.704132 
	C540.505798,307.970703 540.022400,308.374451 539.248047,308.903687 
z"/>
<path fill="#125D27" opacity="1.000000" stroke="none" 
	d="
M416.807159,343.880798 
	C416.491364,343.710083 416.061493,343.246277 415.558014,342.461304 
	C415.887299,342.622650 416.290192,343.105194 416.807159,343.880798 
z"/>
<path fill="#125D27" opacity="1.000000" stroke="none" 
	d="
M387.904968,310.164825 
	C387.924194,310.316620 387.730164,310.623779 387.273254,311.026520 
	C387.237457,310.854767 387.464600,310.587463 387.904968,310.164825 
z"/>
<path fill="#125D27" opacity="1.000000" stroke="none" 
	d="
M417.057068,292.823547 
	C417.037811,292.662445 417.237396,292.347839 417.714539,291.957764 
	C417.753357,292.144867 417.514648,292.407471 417.057068,292.823547 
z"/>
<path fill="#125D27" opacity="1.000000" stroke="none" 
	d="
M388.885986,309.159637 
	C388.908112,309.311188 388.720490,309.618134 388.272400,310.021362 
	C388.233368,309.850098 388.454803,309.582550 388.885986,309.159637 
z"/>
<path fill="#125D27" opacity="1.000000" stroke="none" 
	d="
M389.917297,308.173676 
	C389.931244,308.324341 389.729279,308.623077 389.264160,309.008362 
	C389.234436,308.837189 389.467896,308.579468 389.917297,308.173676 
z"/>
<path fill="#27722B" opacity="1.000000" stroke="none" 
	d="
M400.492798,336.836639 
	C400.655914,336.829041 400.932953,337.067047 401.285889,337.573944 
	C401.110077,337.589294 400.858429,337.335754 400.492798,336.836639 
z"/>
<path fill="#125D27" opacity="1.000000" stroke="none" 
	d="
M390.917358,307.167908 
	C390.933624,307.315582 390.737701,307.621979 390.281036,308.030518 
	C390.248596,307.863983 390.476868,307.595306 390.917358,307.167908 
z"/>
<path fill="#125D27" opacity="1.000000" stroke="none" 
	d="
M541.890991,306.825867 
	C541.901855,306.671783 542.153381,306.366089 542.697571,305.997314 
	C542.704102,306.180908 542.417847,306.427612 541.890991,306.825867 
z"/>
<path fill="#125D27" opacity="1.000000" stroke="none" 
	d="
M391.909454,306.190247 
	C391.924316,306.338501 391.726746,306.639862 391.268555,307.035645 
	C391.237640,306.867798 391.467346,306.605621 391.909454,306.190247 
z"/>
<path fill="#125D27" opacity="1.000000" stroke="none" 
	d="
M412.055237,297.817322 
	C412.030884,297.646973 412.223877,297.330841 412.700592,296.963226 
	C412.747070,297.165009 412.509796,297.418274 412.055237,297.817322 
z"/>
<path fill="#125D27" opacity="1.000000" stroke="none" 
	d="
M417.739563,345.076660 
	C417.582062,345.076111 417.274536,344.837280 416.901550,344.301086 
	C417.087219,344.281982 417.338348,344.560181 417.739563,345.076660 
z"/>
<path fill="#125D27" opacity="1.000000" stroke="none" 
	d="
M392.896606,305.160645 
	C392.916901,305.307098 392.731964,305.611938 392.292725,306.018677 
	C392.256042,305.853363 392.473694,305.586182 392.896606,305.160645 
z"/>
<path fill="#125D27" opacity="1.000000" stroke="none" 
	d="
M540.866577,289.843414 
	C540.738464,289.848999 540.451477,289.656982 540.047974,289.230988 
	C540.190247,289.213257 540.449036,289.429535 540.866577,289.843414 
z"/>
<path fill="#27722B" opacity="1.000000" stroke="none" 
	d="
M408.315186,347.983978 
	C408.475281,347.978821 408.719940,348.209076 409.021118,348.690308 
	C408.786591,348.761841 408.560608,348.521179 408.315186,347.983978 
z"/>
<path fill="#125D27" opacity="1.000000" stroke="none" 
	d="
M404.942474,304.772034 
	C404.923889,304.615723 405.118286,304.252838 405.607483,303.764526 
	C405.653320,303.947906 405.404388,304.256683 404.942474,304.772034 
z"/>
<path fill="#27722B" opacity="1.000000" stroke="none" 
	d="
M411.172241,352.086304 
	C411.392670,351.965759 411.657990,352.159271 411.965088,352.666321 
	C411.746552,352.782227 411.483307,352.589050 411.172241,352.086304 
z"/>
<path fill="#125D27" opacity="1.000000" stroke="none" 
	d="
M393.885529,304.156738 
	C393.906464,304.307648 393.716095,304.610016 393.267609,305.008148 
	C393.231049,304.838654 393.452637,304.573425 393.885529,304.156738 
z"/>
<path fill="#125D27" opacity="1.000000" stroke="none" 
	d="
M394.859497,303.150604 
	C394.883759,303.302002 394.700897,303.605164 394.262665,304.002686 
	C394.222321,303.832123 394.437378,303.567261 394.859497,303.150604 
z"/>
<path fill="#27722B" opacity="1.000000" stroke="none" 
	d="
M390.814636,322.780090 
	C391.032593,322.699219 391.226074,322.892944 391.394958,323.361237 
	C391.174591,323.444427 390.981232,323.250702 390.814636,322.780090 
z"/>
<path fill="#125D27" opacity="1.000000" stroke="none" 
	d="
M384.925415,313.174957 
	C384.947357,313.322662 384.760651,313.643921 384.316162,314.085571 
	C384.277832,313.920166 384.497314,313.634338 384.925415,313.174957 
z"/>
<path fill="#125D27" opacity="1.000000" stroke="none" 
	d="
M382.965607,315.195312 
	C382.977203,315.350891 382.763062,315.654388 382.277161,316.044586 
	C382.250244,315.868622 382.495087,315.605927 382.965607,315.195312 
z"/>
<path fill="#125D27" opacity="1.000000" stroke="none" 
	d="
M413.104980,296.829895 
	C413.070282,296.656921 413.246063,296.339966 413.700470,295.969482 
	C413.757874,296.172577 413.536682,296.429260 413.104980,296.829895 
z"/>
<path fill="#125D27" opacity="1.000000" stroke="none" 
	d="
M401.833038,296.144684 
	C401.851807,296.286926 401.668701,296.572052 401.242615,296.951019 
	C401.166168,296.755737 401.376678,296.503326 401.833038,296.144684 
z"/>
<path fill="#125D27" opacity="1.000000" stroke="none" 
	d="
M414.124207,295.826538 
	C414.083923,295.658081 414.250580,295.334961 414.693146,294.937378 
	C414.756409,295.132599 414.543762,295.402222 414.124207,295.826538 
z"/>
<path fill="#125D27" opacity="1.000000" stroke="none" 
	d="
M415.113342,294.816711 
	C415.084717,294.661987 415.255219,294.329987 415.702881,293.901733 
	C415.757507,294.083466 415.535004,294.361450 415.113342,294.816711 
z"/>
<path fill="#125D27" opacity="1.000000" stroke="none" 
	d="
M542.853149,291.840973 
	C542.730164,291.841156 542.462769,291.636993 542.078491,291.203735 
	C542.210693,291.195312 542.459717,291.415985 542.853149,291.840973 
z"/>
<path fill="#125D27" opacity="1.000000" stroke="none" 
	d="
M386.908752,311.166565 
	C386.927887,311.318146 386.733307,311.626495 386.275391,312.032745 
	C386.239746,311.861572 386.467377,311.592468 386.908752,311.166565 
z"/>
<path fill="#27722B" opacity="1.000000" stroke="none" 
	d="
M391.526794,323.827332 
	C391.773834,323.733765 392.003906,323.963348 392.195557,324.525269 
	C391.962769,324.594452 391.747009,324.358765 391.526794,323.827332 
z"/>
<path fill="#125D27" opacity="1.000000" stroke="none" 
	d="
M416.037109,293.813232 
	C416.020447,293.655670 416.225433,293.338684 416.707397,292.931702 
	C416.742493,293.112457 416.500641,293.383148 416.037109,293.813232 
z"/>
<path fill="#125D27" opacity="1.000000" stroke="none" 
	d="
M400.839508,297.141357 
	C400.857269,297.284668 400.669373,297.569183 400.237549,297.948486 
	C400.160889,297.750824 400.374268,297.497284 400.839508,297.141357 
z"/>
<path fill="#27722B" opacity="1.000000" stroke="none" 
	d="
M381.156372,328.177795 
	C381.040558,328.503662 380.826904,328.719818 380.438354,329.083252 
	C380.270569,329.237518 380.065338,329.048920 380.018616,328.738861 
	C379.971893,328.428802 380.057098,327.991211 380.057098,327.991211 
	C380.057098,327.991211 379.990936,327.991119 380.217590,327.981354 
	C380.444244,327.971588 380.884338,327.869751 380.884338,327.869751 
	C380.884338,327.869751 381.065704,328.075104 381.156372,328.177795 
z"/>
<path fill="#125D27" opacity="1.000000" stroke="none" 
	d="
M385.919006,312.170105 
	C385.938934,312.324036 385.744354,312.637054 385.281738,313.045471 
	C385.243988,312.870331 385.474243,312.599792 385.919006,312.170105 
z"/>
<path fill="#09553C" opacity="1.000000" stroke="none" 
	d="
M258.999969,319.796326 
	C252.184265,319.794952 245.866776,319.705566 239.553619,319.832489 
	C236.744965,319.888947 235.189850,319.235260 235.281570,316.003937 
	C235.446548,310.191528 235.386444,304.370300 235.303619,298.554413 
	C235.267807,296.041473 236.210846,294.990021 238.807877,295.005676 
	C252.602142,295.088776 266.401581,294.855652 280.190002,295.155640 
	C287.973175,295.324982 292.229828,300.124420 292.209503,307.564606 
	C292.189453,314.904083 287.834106,319.423218 279.940765,319.726959 
	C273.136322,319.988800 266.314240,319.790985 258.999969,319.796326 
z"/>
<path fill="#07533D" opacity="1.000000" stroke="none" 
	d="
M171.318146,343.782837 
	C161.154099,333.434723 159.398483,314.666565 167.237213,302.904572 
	C175.944244,289.839722 195.401016,290.263855 202.960220,304.039429 
	C209.045578,315.129089 208.995300,326.824219 202.995911,337.961456 
	C196.811081,349.442932 183.115723,351.845764 171.318146,343.782837 
z"/>
<path fill="#92DE50" opacity="1.000000" stroke="none" 
	d="
M371.519531,287.671112 
	C373.681152,287.654266 375.429321,287.784058 377.615784,287.955994 
	C378.157593,297.928558 378.261169,307.859009 378.286438,318.209961 
	C377.813660,316.226715 377.151062,313.831146 377.077301,311.417603 
	C376.889984,305.287567 377.109436,299.142609 376.817261,293.020294 
	C376.758423,291.786835 375.159882,290.626862 374.271210,289.432983 
	C373.247894,290.523651 372.134552,291.547333 371.247498,292.739380 
	C370.913727,293.187988 371.060913,294.027008 371.062347,294.687897 
	C371.103943,313.755676 371.154938,332.823456 371.251038,352.348480 
	C370.858429,351.700348 370.040771,350.596497 370.036255,349.489319 
	C369.956757,330.113922 369.956909,310.738007 370.023529,291.362488 
	C370.027588,290.179688 370.729065,288.999268 371.519531,287.671112 
z"/>
<path fill="#92DE50" opacity="1.000000" stroke="none" 
	d="
M381.026001,327.630219 
	C380.884338,327.869751 380.444244,327.971588 380.222107,328.014130 
	C380.517853,327.465668 381.035767,326.874664 381.822998,326.149567 
	C381.784088,326.473877 381.475861,326.932281 381.026001,327.630219 
z"/>
<path fill="#3D8533" opacity="1.000000" stroke="none" 
	d="
M378.723572,318.908569 
	C378.803162,318.869781 378.878143,318.848846 378.889954,318.886414 
	C378.901794,318.923950 378.793427,319.106781 378.793427,319.106781 
	C378.793427,319.106781 378.643982,318.947357 378.723572,318.908569 
z"/>
<path fill="#92DE50" opacity="1.000000" stroke="none" 
	d="
M388.092957,320.343048 
	C388.065399,320.475525 387.805237,320.728516 387.270020,321.022339 
	C387.283447,320.863312 387.571930,320.663422 388.092957,320.343048 
z"/>
<path fill="#92DE50" opacity="1.000000" stroke="none" 
	d="
M386.873779,321.212646 
	C386.889465,321.347229 386.716034,321.695221 386.287720,322.203979 
	C386.250153,322.051849 386.467407,321.738922 386.873779,321.212646 
z"/>
<path fill="#92DE50" opacity="1.000000" stroke="none" 
	d="
M384.003815,324.177917 
	C383.989014,324.307251 383.752167,324.594391 383.250366,324.978760 
	C383.250854,324.829224 383.516327,324.582489 384.003815,324.177917 
z"/>
<path fill="#92DE50" opacity="1.000000" stroke="none" 
	d="
M382.886047,325.159119 
	C382.890137,325.291962 382.696136,325.588623 382.247986,325.982849 
	C382.225220,325.827911 382.456543,325.575378 382.886047,325.159119 
z"/>
<path fill="#92DE50" opacity="1.000000" stroke="none" 
	d="
M379.860168,328.145844 
	C380.057098,327.991211 379.971893,328.428802 379.916016,328.644562 
	C379.860107,328.860321 379.426483,328.962921 379.206421,328.999786 
	C379.211945,328.791260 379.437592,328.545868 379.860168,328.145844 
z"/>
<path fill="#9DE53C" opacity="1.000000" stroke="none" 
	d="
M149.418625,288.018250 
	C149.853561,290.054199 149.835709,291.999786 149.797485,294.357147 
	C144.121948,294.831085 138.457321,295.116272 132.814896,294.877350 
	C129.018051,294.716644 127.991913,296.100311 128.028931,299.753723 
	C128.190750,315.726532 128.097488,331.701904 128.092133,347.676361 
	C128.089645,355.088470 128.084824,355.088470 120.114342,353.764038 
	C120.010269,352.002655 119.802940,350.095337 119.799782,348.187653 
	C119.773293,332.213257 119.669197,316.237366 119.863708,300.265289 
	C119.913261,296.196442 118.782410,294.597107 114.543716,294.864532 
	C109.406609,295.188690 104.232269,294.923096 98.617172,294.875366 
	C98.118492,292.848572 98.076691,290.859100 98.055870,288.438721 
	C115.039848,287.981171 132.002853,287.954529 149.418625,288.018250 
z"/>
<path fill="#A0E831" opacity="1.000000" stroke="none" 
	d="
M463.669159,346.760193 
	C471.753265,346.917572 479.416962,346.842407 487.064880,347.154236 
	C488.893738,347.228790 490.670013,348.592773 492.470490,349.363770 
	C490.755463,350.222473 489.060089,351.774292 487.322083,351.823578 
	C478.336975,352.078339 469.339020,351.838348 460.349548,351.998077 
	C455.622894,352.082062 453.872986,350.062500 453.914642,345.394684 
	C454.064789,328.577026 453.976166,311.757263 453.981781,294.938293 
	C453.981995,294.272705 453.789429,293.462555 454.092804,292.969788 
	C454.874695,291.699829 455.884674,290.570282 456.803528,289.384674 
	C457.836365,290.623230 459.673340,291.807556 459.761200,293.109863 
	C460.119080,298.415466 459.951385,303.757141 459.958923,309.085541 
	C459.973236,319.243530 459.772552,329.408691 460.130432,339.554291 
	C460.215271,341.959625 462.155945,344.299500 463.669159,346.760193 
z"/>
<path fill="#125D27" opacity="1.000000" stroke="none" 
	d="
M528.570679,306.756226 
	C524.648010,303.571808 522.968445,299.544128 525.217590,295.557434 
	C526.716309,292.900879 530.060547,289.962067 532.814209,289.708893 
	C535.570984,289.455414 539.391418,291.734436 541.356018,294.071533 
	C544.131653,297.373352 543.425720,301.697144 540.579895,305.048492 
	C537.350220,308.851929 533.262207,309.155487 528.570679,306.756226 
M535.268677,300.860748 
	C535.827698,301.927368 536.386719,302.993988 537.537598,305.189880 
	C537.884766,300.988678 538.457642,297.955017 538.190369,294.997253 
	C538.106445,294.068390 535.829163,292.834930 534.439331,292.658447 
	C532.828430,292.453888 529.700439,293.090485 529.631470,293.655090 
	C529.189209,297.276367 529.405701,300.978088 529.405701,304.432953 
	C531.666931,302.751099 533.171326,301.632202 535.268677,300.860748 
z"/>
<path fill="#73C163" opacity="1.000000" stroke="none" 
	d="
M534.972168,300.687012 
	C533.171326,301.632202 531.666931,302.751099 529.405701,304.432953 
	C529.405701,300.978088 529.189209,297.276367 529.631470,293.655090 
	C529.700439,293.090485 532.828430,292.453888 534.439331,292.658447 
	C535.829163,292.834930 538.106445,294.068390 538.190369,294.997253 
	C538.457642,297.955017 537.884766,300.988678 537.537598,305.189880 
	C536.386719,302.993988 535.827698,301.927368 534.972168,300.687012 
z"/>
</svg>